HIERARCHY
ROOT SpineBase
{
  OFFSET 0.000000 0.000000 0.000000
  CHANNELS 6 Xposition Yposition Zposition Zrotation Xrotation Yrotation
  JOINT SpineMid
  {
    OFFSET -0.000000 29.811518 0.000000
    CHANNELS 3 Zrotation Xrotation Yrotation
    JOINT SpineShoulder
    {
      OFFSET -0.063085 22.209581 -0.705869
      CHANNELS 3 Zrotation Xrotation Yrotation
      JOINT Neck
      {
        OFFSET 0.002166 7.368362 -0.541877
        CHANNELS 3 Zrotation Xrotation Yrotation
        JOINT Head
        {
          OFFSET -5.429196 13.123928 0.365549
          CHANNELS 3 Zrotation Xrotation Yrotation
          End Site
          {
            OFFSET 0 0 0
          }
        }
      }
      JOINT ShoulderLeft
      {
        OFFSET -15.022436 -5.486160 7.358129
        CHANNELS 3 Zrotation Xrotation Yrotation
        JOINT ElbowLeft
        {
          OFFSET -0.351746 -26.565906 4.724715
          CHANNELS 3 Zrotation Xrotation Yrotation
          JOINT WristLeft
          {
            OFFSET -0.351207 -21.831661 -6.346361
            CHANNELS 3 Zrotation Xrotation Yrotation
            JOINT HandLeft
            {
              OFFSET 1.319935 2.235275 -1.007275
              CHANNELS 3 Zrotation Xrotation Yrotation
              JOINT HandTipLeft
              {
                OFFSET 0.605496 -0.198189 -1.711686
                CHANNELS 3 Zrotation Xrotation Yrotation
                End Site
                {
                  OFFSET 0 0 0
                }
              }
              JOINT ThumbLeft
              {
                OFFSET -0.227690 0.490111 -0.966637
                CHANNELS 3 Zrotation Xrotation Yrotation
                End Site
                {
                  OFFSET 0 0 0
                }
              }
            }
          }
        }
      }
      JOINT ShoulderRight
      {
        OFFSET 13.212159 -2.819960 -9.437664
        CHANNELS 3 Zrotation Xrotation Yrotation
        JOINT ElbowRight
        {
          OFFSET 8.009327 -24.989236 -0.818976
          CHANNELS 3 Zrotation Xrotation Yrotation
          JOINT WristRight
          {
            OFFSET -2.410373 -22.186798 -4.396771
            CHANNELS 3 Zrotation Xrotation Yrotation
            JOINT HandRight
            {
              OFFSET -1.233034 -2.192358 1.906001
              CHANNELS 3 Zrotation Xrotation Yrotation
              JOINT HandTipRight
              {
                OFFSET -1.006067 -7.314908 0.315392
                CHANNELS 3 Zrotation Xrotation Yrotation
                End Site
                {
                  OFFSET 0 0 0
                }
              }
              JOINT ThumbRight
              {
                OFFSET -3.104377 1.604369 -2.065600
                CHANNELS 3 Zrotation Xrotation Yrotation
                End Site
                {
                  OFFSET 0 0 0
                }
              }
            }
          }
        }
      }
    }
  }
  JOINT HipLeft
  {
    OFFSET -5.971691 0.272761 -0.483514
    CHANNELS 3 Zrotation Xrotation Yrotation
    JOINT KneeLeft
    {
      OFFSET 4.128510 -29.250641 6.203818
      CHANNELS 3 Zrotation Xrotation Yrotation
      JOINT AnkleLeft
      {
        OFFSET 5.110014 -31.821159 3.913822
        CHANNELS 3 Zrotation Xrotation Yrotation
        JOINT FootLeft
        {
          OFFSET 3.121527 -6.417603 -6.893060
          CHANNELS 3 Zrotation Xrotation Yrotation
          End Site
          {
            OFFSET 0 0 0
          }
        }
      }
    }
  }
  JOINT HipRight
  {
    OFFSET 6.686717 1.526817 -6.249084
    CHANNELS 3 Zrotation Xrotation Yrotation
    JOINT KneeRight
    {
      OFFSET 6.257854 -27.117725 3.955702
      CHANNELS 3 Zrotation Xrotation Yrotation
      JOINT AnkleRight
      {
        OFFSET 2.296951 -32.992244 6.544159
        CHANNELS 3 Zrotation Xrotation Yrotation
        JOINT FootRight
        {
          OFFSET -4.856128 -3.696342 -11.798198
          CHANNELS 3 Zrotation Xrotation Yrotation
          End Site
          {
            OFFSET 0 0 0
          }
        }
      }
    }
  }
}
MOTION
Frames: 14
Frame Time: 0.033333
-35.960744 67.998501 334.949848 0.000000 0.000000 24.488009 -0.000000 -0.000000 -24.488009 -0.000000 0.000000 0.000000 -0.000000 0.000000 0.000000 0.000000 0.000000 0.000000 -0.000000 0.000000 0.000000 -0.000000 0.000000 0.000000 -0.000000 0.000000 0.000000 -0.000000 0.000000 0.000000 0.000000 0.000000 0.000000 0.000000 0.000000 0.000000 -0.000000 0.000000 0.000000 -0.000000 0.000000 0.000000 -0.000000 0.000000 0.000000 -0.000000 0.000000 0.000000 0.000000 0.000000 0.000000 0.000000 0.000000 0.000000 -0.000000 -0.000000 -24.488009 -0.000000 0.000000 0.000000 -0.000000 0.000000 0.000000 0.000000 0.000000 0.000000 -0.000000 -0.000000 -24.488009 -0.000000 0.000000 0.000000 -0.000000 0.000000 0.000000 0.000000 0.000000 0.000000
-35.947195 67.917446 335.086309 0.136771 -0.120311 24.329091 -0.075060 0.165973 -24.328838 -0.000000 0.000000 0.000000 -0.000000 0.000000 0.000000 0.000000 0.000000 0.000000 -0.000000 0.000000 0.000000 -0.152585 -2.052183 0.075029 2.704339 -6.251948 5.956160 -14.776255 -22.378180 1.900192 0.000000 0.000000 0.000000 0.000000 0.000000 0.000000 -0.000000 0.000000 0.000000 -0.000000 0.000000 0.000000 -1.802967 -0.977385 -1.016699 3.707647 0.502072 1.117238 0.000000 0.000000 0.000000 0.000000 0.000000 0.000000 -0.075060 0.165973 -24.328838 -0.000000 0.000000 0.000000 4.344482 -2.616348 -5.872722 0.000000 0.000000 0.000000 -0.075060 0.165973 -24.328838 -0.000000 0.000000 0.000000 -0.000000 0.000000 0.000000 0.000000 0.000000 0.000000
-35.938233 67.846169 335.208688 0.260395 -0.229694 24.182814 -0.143452 0.316206 -24.181896 -0.000000 0.000000 0.000000 -0.000000 0.000000 0.000000 0.000000 0.000000 0.000000 0.464957 -0.680287 0.094366 -0.707663 -2.713163 0.031846 4.151563 -10.149568 9.568309 -22.248886 -30.287097 0.312761 0.000000 0.000000 0.000000 0.000000 0.000000 0.000000 -0.000000 0.000000 0.000000 -0.000000 0.000000 0.000000 -3.422462 -1.571281 -2.079516 6.907057 0.934072 2.174954 0.000000 0.000000 0.000000 0.000000 0.000000 0.000000 -0.143452 0.316206 -24.181896 -0.000000 0.000000 0.000000 7.227792 -4.448500 -9.741178 0.000000 0.000000 0.000000 -0.143452 0.316206 -24.181896 -0.000000 0.000000 0.000000 -0.000000 0.000000 0.000000 0.000000 0.000000 0.000000
-35.933858 67.784672 335.316985 0.371014 -0.328272 24.049058 -0.205040 0.450967 -24.047189 -0.000000 0.000000 0.000000 -0.000000 0.000000 0.000000 0.000000 0.000000 0.000000 0.627698 -1.002550 0.130210 -0.894212 -3.029666 0.018038 4.723345 -13.796744 12.249080 -25.862671 -31.452278 -2.027928 0.000000 0.000000 0.000000 0.000000 0.000000 0.000000 -0.000000 0.000000 0.000000 0.382972 -0.939791 0.029407 -5.189924 -0.808512 -3.100551 9.554575 1.231976 3.212634 0.000000 0.000000 0.000000 0.000000 0.000000 0.000000 -0.205040 0.450967 -24.047189 -0.000000 0.000000 0.000000 8.945158 -5.317875 -11.898025 0.000000 0.000000 0.000000 -0.205040 0.450967 -24.047189 -0.000000 0.000000 0.000000 -0.000000 0.000000 0.000000 0.000000 0.000000 0.000000
-35.934071 67.732953 335.411198 0.468748 -0.416149 23.927705 -0.259696 0.570492 -23.924710 -0.000000 0.000000 0.000000 -0.000000 0.000000 0.000000 0.000000 0.000000 0.000000 0.743012 -1.311954 0.157717 -0.968322 -2.661266 -0.014481 4.553536 -18.298102 14.661043 -27.155556 -29.210801 -4.585746 0.000000 0.000000 0.000000 0.000000 0.000000 0.000000 -0.000000 0.000000 0.000000 0.478824 -1.158243 0.035874 -6.389800 -0.324870 -4.124008 11.616719 1.337088 4.264301 0.000000 0.000000 0.000000 0.000000 0.000000 0.000000 -0.259696 0.570492 -23.924710 -0.000000 0.000000 0.000000 9.693209 -5.171364 -12.555588 0.000000 0.000000 0.000000 -0.259696 0.570492 -23.924710 -0.000000 0.000000 0.000000 -0.000000 0.000000 0.000000 0.000000 0.000000 0.000000
-35.938870 67.691013 335.491328 0.553703 -0.493417 23.818638 -0.307307 0.674986 -23.814444 -0.000000 0.000000 0.000000 -0.000000 0.000000 0.000000 0.000000 0.000000 0.000000 0.810458 -1.607846 0.176380 -0.928684 -1.608605 -0.067965 3.499926 -24.797399 17.222567 -26.373056 -24.004798 -7.411251 0.000000 0.000000 0.000000 0.000000 0.000000 0.000000 -0.000000 0.000000 0.000000 0.558691 -1.329186 0.040287 -7.249535 0.569266 -5.110172 13.069353 1.195613 5.352182 0.000000 0.000000 0.000000 0.000000 0.000000 0.000000 -0.307307 0.674986 -23.814444 -0.000000 0.000000 0.000000 9.526673 -3.978078 -11.780363 0.000000 0.000000 0.000000 -0.307307 0.674986 -23.814444 -0.000000 0.000000 0.000000 -0.000000 0.000000 0.000000 0.000000 0.000000 0.000000
-35.950418 67.647958 335.582276 0.622511 -0.602545 23.795224 -0.326527 0.802467 -23.789664 -0.000000 0.000000 0.000000 -0.000000 0.000000 0.000000 0.000000 0.000000 0.000000 0.934562 -2.190113 0.212381 -0.725763 -1.831076 -0.174810 -4.845332 -34.210967 16.858243 -19.744503 -16.130565 -13.258593 0.000000 0.000000 0.000000 0.000000 0.000000 0.000000 -0.000000 0.000000 0.000000 0.588199 -1.501577 0.054456 -8.062777 2.062059 -6.410208 13.736399 0.992005 6.790716 0.000000 0.000000 0.000000 0.000000 0.000000 0.000000 -0.326527 0.802467 -23.789664 -0.000000 0.000000 0.000000 8.217606 0.202842 -8.431062 0.000000 0.000000 0.000000 -0.326527 0.802467 -23.789664 -0.000000 0.000000 0.000000 -0.490685 1.985219 -0.974281 0.000000 0.000000 0.000000
-35.967327 67.619020 335.655290 0.684081 -0.686929 23.771548 -0.349206 0.904368 -23.764691 -0.000000 0.000000 0.000000 -0.000000 0.000000 0.000000 0.000000 0.000000 0.000000 1.024709 -2.860812 0.244665 -0.909501 0.364055 -0.189167 -26.837419 -62.191249 9.924939 1.387327 9.646907 -21.258126 0.000000 0.000000 0.000000 0.000000 0.000000 0.000000 -0.000000 0.000000 0.000000 0.613092 -1.606850 0.061887 -6.920866 4.960012 -7.005101 12.864726 -1.331201 7.900740 0.000000 0.000000 0.000000 0.000000 0.000000 0.000000 -0.349206 0.904368 -23.764691 -0.000000 0.000000 0.000000 5.795730 2.752844 -4.786266 0.000000 0.000000 0.000000 -0.349206 0.904368 -23.764691 -0.000000 0.000000 0.000000 0.482532 -0.564229 -0.813816 0.000000 0.000000 0.000000
-35.988487 67.615046 335.693881 0.726137 -0.729872 23.701094 -0.110694 0.186637 -23.680211 0.033717 -0.025395 0.027273 -0.583003 0.629291 -0.039874 0.000000 0.000000 0.000000 0.164766 -2.444657 0.145215 -0.476995 6.023259 -0.294915 -177.504599 -73.976760 -126.409077 30.314360 41.499460 -47.502400 0.000000 0.000000 0.000000 0.000000 0.000000 0.000000 0.130961 0.201310 -0.205162 -0.003142 -1.129891 0.196163 -7.136634 6.198116 -7.799018 13.516758 -1.849172 8.930356 0.000000 0.000000 0.000000 0.000000 0.000000 0.000000 0.268731 1.500803 -23.522507 -0.371304 -0.751159 -0.187032 2.654002 3.523964 -1.166469 0.000000 0.000000 0.000000 -0.371576 0.960158 -23.693355 -0.000000 0.000000 0.000000 1.332774 -2.722619 -0.709649 0.000000 0.000000 0.000000
-36.009212 67.636345 335.673833 0.751300 -0.706858 23.574085 -0.120845 0.129538 -23.551873 0.043385 -0.072610 0.029934 -0.631560 0.709567 -0.042763 0.000000 0.000000 0.000000 1.386869 -1.758482 0.366317 -2.164405 14.653606 -0.448841 144.235295 -48.614817 -161.604409 48.212842 63.848251 -78.621284 0.000000 0.000000 0.000000 0.000000 0.000000 0.000000 0.103035 0.183995 -0.240479 0.059901 -0.907096 0.196716 -7.175430 8.041135 -8.877120 13.889076 -2.964318 10.363001 0.000000 0.000000 0.000000 0.000000 0.000000 0.000000 0.317882 1.448974 -23.377230 -1.188745 -1.088386 -0.362773 1.231767 3.891488 1.249936 0.000000 0.000000 0.000000 -0.405974 0.948300 -23.566091 0.215274 0.879402 0.102417 1.741629 -5.268262 -0.577745 0.000000 0.000000 0.000000
-36.019306 67.672173 335.615038 0.785329 -0.615812 23.337076 -0.169059 0.040313 -23.313991 0.037144 -0.102167 0.030784 -0.650677 0.748464 -0.043843 0.000000 0.000000 0.000000 0.770020 -0.213944 0.214734 -1.452072 26.025040 -0.589948 139.297093 -40.550236 -167.612958 48.023742 69.279008 -86.638673 0.000000 0.000000 0.000000 0.000000 0.000000 0.000000 0.084175 0.121210 -0.273951 0.150798 -0.659889 0.193466 -4.751026 11.060254 -8.875651 11.079419 -6.363225 10.563256 0.000000 0.000000 0.000000 0.000000 0.000000 0.000000 0.303051 1.234190 -23.131630 -1.383808 -0.952080 -0.376882 -0.485985 2.746840 2.698952 0.000000 0.000000 0.000000 -0.477200 0.876493 -23.329206 0.351533 0.913293 0.130691 2.015163 -6.320541 -0.554792 0.000000 0.000000 0.000000
-36.002394 67.699043 335.494605 0.835034 -0.421940 22.943127 -0.265907 -0.061694 -22.920350 0.021190 -0.058795 0.029253 -1.982244 1.173289 0.236347 0.000000 0.000000 0.000000 -2.243508 2.276805 -0.310899 3.223431 39.177403 -1.275097 140.333807 -37.726216 -166.907554 44.188630 67.431437 -85.909402 0.000000 0.000000 0.000000 0.000000 0.000000 0.000000 0.059620 -0.087608 -0.302619 0.275180 -0.352333 0.182579 -3.391544 13.139222 -9.236603 9.258228 -9.688931 11.051615 0.000000 0.000000 0.000000 0.000000 0.000000 0.000000 -0.604547 0.714034 -22.936285 -0.935428 -0.333422 -0.171483 0.479005 -2.018885 -0.505248 0.000000 0.000000 0.000000 -1.579698 0.839278 -23.122544 1.383178 1.164431 0.341651 2.104396 -6.579373 -0.817795 0.000000 0.000000 0.000000
-35.960382 67.712817 335.330135 0.912997 -0.152405 22.675020 -0.783701 0.492562 -22.670437 -0.000000 0.000000 0.000000 -2.639264 1.516235 0.742531 0.000000 0.000000 0.000000 -7.541720 6.587129 -1.005294 14.798988 49.671802 -3.933994 149.678320 -34.706590 -154.735630 38.199904 60.942740 -76.303555 0.000000 0.000000 0.000000 0.000000 0.000000 0.000000 0.655226 -0.801700 -0.273409 0.355828 -0.134309 0.178095 -0.847404 16.423374 -9.656448 7.087524 -13.910563 11.358543 0.000000 0.000000 0.000000 0.000000 0.000000 0.000000 -0.783701 0.492562 -22.670437 -0.771117 -0.345607 -0.152778 -0.568947 -3.329497 -0.240962 0.000000 0.000000 0.000000 -2.012700 0.556656 -22.924333 1.635271 1.200601 0.404108 2.000455 -5.991116 -1.336466 0.000000 0.000000 0.000000
-35.909386 67.720064 335.133279 0.981301 0.172605 22.475237 -0.972749 0.215647 -22.474884 -0.000000 0.000000 0.000000 -3.994959 2.568037 1.281071 0.000000 0.000000 0.000000 -16.199799 15.324256 -0.931053 28.242518 51.700359 -4.131972 149.861818 -38.272211 -153.690638 26.457692 55.634058 -62.843438 0.000000 0.000000 0.000000 0.000000 0.000000 0.000000 0.607368 -0.833022 -0.282075 0.472297 0.070769 0.151131 -0.565902 18.679264 -11.172907 6.954535 -16.860412 13.021219 0.000000 0.000000 0.000000 0.000000 0.000000 0.000000 -0.972749 0.215647 -22.474884 -0.000000 0.000000 0.000000 -2.862129 -2.323661 1.952442 0.000000 0.000000 0.000000 -2.293019 0.211746 -22.765542 1.215908 0.514499 0.290122 1.235521 -1.598349 -1.940227 0.000000 0.000000 0.000000
